<svg width="73.641663" height="73.650879" viewBox="0 0 73.6417 73.6509" fill="none" xmlns="http://www.w3.org/2000/svg" xmlns:xlink="http://www.w3.org/1999/xlink">
	<desc>
			Created with Pixso.
	</desc>
	<defs/>
	<path id="Слияние" d="M1.46655 1.4646C-0.486084 3.41724 -0.486084 6.58301 1.46655 8.53564L29.7554 36.8245L1.46448 65.1155C-0.488159 67.0681 -0.488159 70.2339 1.46448 72.1865C3.41711 74.1392 6.58295 74.1392 8.53552 72.1865L36.8265 43.8958L65.1061 72.1753C67.0588 74.1279 70.2246 74.1279 72.1772 72.1753C74.1298 70.2227 74.1298 67.0569 72.1772 65.1042L43.8975 36.8245L72.1751 8.54688C74.1277 6.59424 74.1277 3.42847 72.1751 1.47583C70.2225 -0.476807 67.0567 -0.476807 65.1041 1.47583L36.8265 29.7534L8.5376 1.4646C6.58496 -0.488037 3.41913 -0.488037 1.46655 1.4646Z" clip-rule="evenodd" fill="#515151" fill-opacity="1.000000" fill-rule="evenodd"/>
</svg>
