<svg width="400.000000" height="170.000000" viewBox="0 0 400 170" fill="none" xmlns="http://www.w3.org/2000/svg" xmlns:xlink="http://www.w3.org/1999/xlink">
	<desc>
			Created with Pixso.
	</desc>
	<defs>
		<clipPath id="clip8_31">
			<rect id="фрейм 21" width="400.000000" height="170.000000" fill="white" fill-opacity="0"/>
		</clipPath>
	</defs>
	<g clip-path="url(#clip8_31)">
		<path id="Форма 12" d="M63.94 5.02Q60.79 4.62 57.59 4.62Q56.57 4.62 55.55 4.66Q47.92 4.98 40.4 7.68Q31.86 10.74 23.97 16.72Q16.07 22.71 10.21 32.64Q4.35 42.58 3.84 56.34L3.84 148.3C3.84 153.06 5.58 157 9.06 160.14C12.54 163.29 16.66 164.86 21.42 164.86Q29.06 164.22 33.2 160.08Q37.34 155.94 37.98 148.3L37.98 58.37C38.15 54.3 39 50.86 40.52 48.06Q42.82 43.85 45.62 41.43Q48.42 39.01 51.35 37.87Q53.42 37.06 55.56 36.82Q56.44 36.72 57.34 36.72C59.37 36.72 61.41 37.1 63.45 37.87C65.49 38.63 67.44 39.82 69.31 41.43C71.18 43.05 72.88 45.25 74.4 48.06C75.93 50.86 76.7 54.3 76.7 58.37L76.7 148.3C76.7 153.06 78.44 157 81.92 160.14C85.4 163.29 89.52 164.86 94.28 164.86Q101.9 164.22 106.11 160.1Q110.32 155.96 111.09 148.3L111.09 58.37C111.26 54.3 112.11 50.86 113.64 48.06C115.16 45.25 116.86 43.05 118.73 41.43Q121.53 39.01 124.46 37.87C126.42 37.1 128.41 36.72 130.45 36.72L130.45 36.72Q133.51 36.72 136.56 37.87C138.6 38.63 140.55 39.82 142.42 41.43C144.29 43.05 145.99 45.25 147.52 48.06C149.05 50.86 149.81 54.3 149.81 58.37L149.81 148.3C149.81 153.06 151.55 157 155.03 160.14C158.51 163.29 162.63 164.86 167.39 164.86Q175.02 164.22 179.22 160.1Q183.44 155.96 184.2 148.3L184.2 56.34C184.2 47.16 182.21 39.27 178.21 32.64C174.22 26.02 169.64 20.71 164.46 16.72C159.28 12.73 153.84 9.72 148.15 7.68C142.47 5.64 136.65 4.62 130.7 4.62Q129.68 4.62 128.66 4.66Q121.04 4.98 113.51 7.68Q104.97 10.74 97.08 16.6C96.06 17.44 95.12 18.29 94.28 19.14C93.26 18.29 92.32 17.44 91.47 16.6Q83.58 10.74 75.04 7.68Q69.57 5.72 63.94 5.02ZM233.88 165.37C244.07 164.52 249.67 159 250.69 148.81L250.69 52.26C250.69 48.01 252.9 45.81 257.31 45.64L346.73 45.64C349.96 45.81 352.63 46.53 354.75 47.8C356.88 49.08 358.45 50.52 359.47 52.13C360.49 53.75 361 55.4 361 57.1C361 58.8 360.49 60.45 359.47 62.07C358.45 63.68 356.88 65.12 354.75 66.4C352.63 67.67 349.96 68.39 346.73 68.56L279.48 68.56C274.72 68.56 270.69 70.22 267.38 73.53C264.06 76.84 262.41 80.88 262.41 85.63C262.41 87.5 263.94 96.08 266.99 111.36C269.2 125.12 275.4 137.01 285.59 147.03C295.78 157.05 307.16 161.97 319.73 161.8L379.34 161.8C383.92 161.63 387.79 159.98 390.93 156.83C394.07 153.69 395.73 149.83 395.9 145.24C395.9 140.49 394.32 136.41 391.18 133.02C388.04 129.62 384.09 127.84 379.34 127.67L324.31 127.67C318.03 127.67 312.85 125.63 308.77 121.55C304.53 117.48 301.72 111.19 300.37 102.7L345.2 102.7C357.09 102.36 366.9 99.64 374.62 94.55C382.35 89.45 387.87 83.64 391.18 77.1Q395.37 68.83 396.03 60.29Q396.15 58.7 396.15 57.1C396.15 50.48 394.45 43.9 391.06 37.36C387.66 30.82 382.14 25 374.5 19.91Q363.03 12.26 345.2 11.76L343.67 11.76C342.65 11.59 341.63 11.5 340.62 11.5L233.88 11.5C229.12 11.5 225.05 13.07 221.65 16.21C218.25 19.35 216.47 23.3 216.3 28.06L216.3 148.81C216.3 153.57 218.04 157.51 221.52 160.66C225 163.8 229.12 165.37 233.88 165.37Z" fill="#F5F5F5" fill-opacity="0" fill-rule="evenodd"/>
		<path id="Форма 12" d="M93.26 14.19C87.76 10.1 82.02 6.99 76.05 4.85C72.24 3.49 68.38 2.56 64.46 2.06C62.19 1.77 59.9 1.62 57.59 1.62C56.74 1.62 55.9 1.64 55.05 1.68C49.79 1.94 44.57 3 39.38 4.85C33.41 7 27.66 10.16 22.15 14.33C16.57 18.56 11.73 24.16 7.62 31.12C3.46 38.18 1.2 46.55 0.84 56.22L0.84 56.28L0.84 148.3C0.84 151.22 1.4 153.89 2.51 156.3C3.54 158.55 5.05 160.57 7.05 162.37C8.98 164.12 11.08 165.44 13.35 166.36C15.84 167.36 18.53 167.86 21.42 167.86L21.54 167.86L21.67 167.85C27.6 167.35 32.18 165.5 35.4 162.28C38.62 159.07 40.47 154.49 40.97 148.55L40.98 148.42L40.98 58.44C41.13 54.85 41.86 51.87 43.16 49.49C44.51 47.01 45.99 45.08 47.58 43.7C49.19 42.31 50.81 41.3 52.44 40.66C53.65 40.19 54.87 39.89 56.11 39.78C56.52 39.74 56.93 39.72 57.34 39.72C59.01 39.72 60.7 40.04 62.4 40.68C64.1 41.31 65.75 42.32 67.35 43.7C68.94 45.08 70.42 47.01 71.77 49.49C73.06 51.85 73.7 54.81 73.7 58.37L73.7 148.3C73.7 151.22 74.25 153.89 75.36 156.3C76.4 158.55 77.91 160.57 79.91 162.37C81.84 164.12 83.94 165.44 86.21 166.36C88.7 167.36 91.38 167.86 94.28 167.86L94.4 167.86L94.52 167.85C100.44 167.36 105.03 165.51 108.28 162.31C111.55 159.1 113.48 154.53 114.07 148.6L114.09 148.45L114.09 58.44C114.24 54.85 114.97 51.87 116.27 49.49C117.62 47.01 119.1 45.08 120.69 43.7C122.3 42.31 123.92 41.3 125.56 40.66C126.76 40.19 127.98 39.89 129.22 39.78C129.63 39.74 130.04 39.72 130.45 39.72C132.12 39.72 133.81 40.04 135.51 40.68C137.21 41.31 138.86 42.32 140.46 43.7C142.06 45.08 143.53 47.01 144.88 49.49C146.17 51.85 146.81 54.81 146.81 58.37L146.81 148.3C146.81 151.22 147.37 153.89 148.48 156.3C149.51 158.55 151.03 160.57 153.02 162.37C154.95 164.12 157.05 165.44 159.32 166.36C161.81 167.36 164.5 167.86 167.39 167.86L167.51 167.86L167.64 167.85C173.55 167.36 178.14 165.51 181.39 162.31C184.66 159.1 186.59 154.53 187.19 148.6L187.2 148.45L187.2 56.34C187.2 46.61 185.06 38.2 180.78 31.1C176.6 24.15 171.77 18.57 166.29 14.35C160.86 10.16 155.15 7 149.17 4.85C145.36 3.49 141.49 2.56 137.57 2.06C135.3 1.77 133.01 1.62 130.7 1.62C129.86 1.62 129.01 1.64 128.17 1.68C122.9 1.94 117.68 3 112.5 4.85C106.53 6.99 100.79 10.1 95.29 14.19L95.22 14.24L95.16 14.29C94.84 14.56 94.53 14.82 94.22 15.09C94.01 14.88 93.8 14.68 93.59 14.47L93.44 14.32L93.26 14.19ZM94.28 19.14C93.26 18.29 92.32 17.44 91.47 16.6C86.21 12.69 80.73 9.72 75.04 7.68C71.39 6.37 67.7 5.48 63.94 5.02L63.94 5.02C61.84 4.75 59.73 4.62 57.59 4.62C56.91 4.62 56.23 4.64 55.55 4.66L55.55 4.66L55.55 4.66C50.47 4.88 45.42 5.88 40.4 7.68C34.71 9.72 29.23 12.73 23.97 16.72C18.7 20.71 14.11 26.02 10.21 32.64C6.3 39.27 4.18 47.16 3.84 56.34L3.84 148.3C3.84 153.06 5.58 157 9.06 160.14C12.54 163.29 16.66 164.86 21.42 164.86C26.51 164.43 30.44 162.84 33.2 160.08C35.96 157.32 37.55 153.39 37.98 148.3L37.98 58.37C38.15 54.3 39 50.86 40.52 48.06C42.05 45.25 43.75 43.05 45.62 41.43C47.49 39.82 49.4 38.63 51.35 37.87C52.73 37.33 54.13 36.98 55.56 36.82L55.56 36.82L55.56 36.82C56.15 36.75 56.74 36.72 57.34 36.72C59.37 36.72 61.41 37.1 63.45 37.87C65.49 38.63 67.44 39.82 69.31 41.43C71.18 43.05 72.88 45.25 74.4 48.06C75.93 50.86 76.7 54.3 76.7 58.37L76.7 148.3C76.7 153.06 78.44 157 81.92 160.14C85.4 163.29 89.52 164.86 94.28 164.86C99.36 164.43 103.3 162.85 106.11 160.1C108.92 157.34 110.58 153.4 111.09 148.3L111.09 58.37C111.26 54.3 112.11 50.86 113.64 48.06C115.16 45.25 116.86 43.05 118.73 41.43C120.6 39.82 122.51 38.63 124.46 37.87C126.42 37.1 128.41 36.72 130.45 36.72L130.45 36.72C132.49 36.72 134.53 37.1 136.56 37.87C138.6 38.63 140.55 39.82 142.42 41.43C144.29 43.05 145.99 45.25 147.52 48.06C149.05 50.86 149.81 54.3 149.81 58.37L149.81 148.3C149.81 153.06 151.55 157 155.03 160.14C158.51 163.29 162.63 164.86 167.39 164.86C172.47 164.43 176.42 162.85 179.22 160.1C182.03 157.34 183.69 153.4 184.2 148.3L184.2 56.34C184.2 47.16 182.21 39.27 178.21 32.64C174.22 26.02 169.64 20.71 164.46 16.72C159.28 12.73 153.84 9.72 148.15 7.68C142.47 5.64 136.65 4.62 130.7 4.62C130.03 4.62 129.36 4.64 128.68 4.66L128.67 4.66L128.66 4.66C123.58 4.88 118.53 5.88 113.51 7.68C107.82 9.72 102.34 12.69 97.08 16.6C96.06 17.44 95.12 18.29 94.28 19.14ZM225.81 166.87C228.3 167.87 230.99 168.37 233.88 168.37L234 168.37L234.13 168.36C240.04 167.87 244.63 166.02 247.88 162.82C251.15 159.61 253.08 155.04 253.68 149.11L253.69 148.96L253.69 52.26C253.69 51.19 253.96 50.35 254.49 49.75C255.1 49.07 256.06 48.7 257.38 48.64L346.65 48.64C349.34 48.79 351.53 49.37 353.21 50.37C354.93 51.4 356.17 52.52 356.93 53.73C357.64 54.86 358 55.98 358 57.1C358 58.22 357.64 59.34 356.93 60.47C356.17 61.68 354.93 62.8 353.21 63.83C351.53 64.83 349.34 65.41 346.65 65.56L279.48 65.56C276.56 65.56 273.88 66.09 271.42 67.16C269.17 68.13 267.12 69.55 265.25 71.41C263.39 73.27 261.97 75.33 261 77.58C259.94 80.03 259.41 82.72 259.41 85.63C259.41 87.7 260.95 96.45 264.04 111.89C265.05 118.18 266.86 124.09 269.47 129.63C272.82 136.76 277.49 143.27 283.49 149.17C291.06 156.62 299.28 161.41 308.14 163.53C311.89 164.43 315.75 164.86 319.73 164.8L379.39 164.8L379.45 164.8C382.41 164.69 385.11 164.05 387.57 162.88C389.56 161.92 391.39 160.61 393.05 158.96C394.71 157.3 396.02 155.47 396.97 153.47C398.14 151.02 398.78 148.31 398.89 145.35L398.9 145.3L398.9 145.24C398.9 142.23 398.35 139.45 397.26 136.9C396.35 134.76 395.06 132.79 393.39 130.98C391.68 129.14 389.78 127.7 387.68 126.66C385.21 125.44 382.46 124.78 379.44 124.67L379.39 124.67L324.31 124.67C320.74 124.67 317.58 123.91 314.84 122.4C313.39 121.61 312.06 120.6 310.85 119.39C307.67 116.33 305.38 111.77 304 105.7L345.24 105.7L345.29 105.7C357.74 105.34 368.07 102.46 376.28 97.05C384.45 91.67 390.31 85.47 393.86 78.45C396.76 72.73 398.47 66.9 398.98 60.96C399.09 59.68 399.15 58.39 399.15 57.1C399.15 56.56 399.14 56.02 399.12 55.49C398.87 48.92 397.07 42.42 393.72 35.97C390.08 28.98 384.23 22.79 376.16 17.41C368.04 12 357.75 9.11 345.29 8.76L345.24 8.76L343.91 8.76C342.9 8.6 341.88 8.51 340.86 8.5C340.78 8.5 340.7 8.5 340.62 8.5L233.88 8.5C230.86 8.5 228.08 9.04 225.53 10.13C223.4 11.04 221.42 12.34 219.61 14.01C217.77 15.72 216.33 17.62 215.29 19.72C214.07 22.19 213.41 24.93 213.3 27.95L213.3 28.01L213.3 148.81C213.3 151.73 213.85 154.4 214.96 156.81C216 159.06 217.51 161.08 219.51 162.88C221.44 164.63 223.54 165.95 225.81 166.87ZM343.67 11.76C342.65 11.59 341.63 11.5 340.62 11.5L233.88 11.5C229.12 11.5 225.05 13.07 221.65 16.21C218.25 19.35 216.47 23.3 216.3 28.06L216.3 148.81C216.3 153.57 218.04 157.51 221.52 160.66C225 163.8 229.12 165.37 233.88 165.37C244.07 164.52 249.67 159 250.69 148.81L250.69 52.26C250.69 48.01 252.9 45.81 257.31 45.64L346.73 45.64C349.96 45.81 352.63 46.53 354.75 47.8C356.88 49.08 358.45 50.52 359.47 52.13C360.49 53.75 361 55.4 361 57.1C361 58.8 360.49 60.45 359.47 62.07C358.45 63.68 356.88 65.12 354.75 66.4C352.63 67.67 349.96 68.39 346.73 68.56L279.48 68.56C274.72 68.56 270.69 70.22 267.38 73.53C264.06 76.84 262.41 80.88 262.41 85.63C262.41 87.5 263.94 96.08 266.99 111.36C269.2 125.12 275.4 137.01 285.59 147.03C295.78 157.05 307.16 161.97 319.73 161.8L379.34 161.8C383.92 161.63 387.79 159.98 390.93 156.83C394.07 153.69 395.73 149.83 395.9 145.24C395.9 140.49 394.32 136.41 391.18 133.02C388.04 129.62 384.09 127.84 379.34 127.67L324.31 127.67C318.03 127.67 312.85 125.63 308.77 121.55C305.04 117.97 302.43 112.69 300.93 105.7C300.72 104.73 300.53 103.73 300.37 102.7L345.2 102.7C357.09 102.36 366.9 99.64 374.62 94.55C382.35 89.45 387.87 83.64 391.18 77.1C393.98 71.58 395.59 65.98 396.03 60.29L396.03 60.29C396.11 59.23 396.15 58.17 396.15 57.1C396.15 50.48 394.45 43.9 391.06 37.36C387.66 30.82 382.14 25 374.5 19.91C366.85 14.81 357.09 12.09 345.2 11.76L343.67 11.76Z" fill="#000000" fill-opacity="1.000000" fill-rule="evenodd"/>
		<mask id="mask4_302" mask-type="alpha" maskUnits="userSpaceOnUse" x="3.844971" y="4.626953" width="392.309998" height="160.745850">
			<path id="Форма 19" d="M63.94 5.02Q60.79 4.62 57.59 4.62Q56.57 4.62 55.55 4.66Q47.92 4.98 40.4 7.68Q31.86 10.74 23.97 16.72Q16.07 22.71 10.21 32.64Q4.35 42.58 3.84 56.34L3.84 148.3C3.84 153.06 5.58 157 9.06 160.14C12.54 163.29 16.66 164.86 21.42 164.86Q29.06 164.22 33.2 160.08Q37.34 155.94 37.98 148.3L37.98 58.37C38.15 54.3 39 50.86 40.52 48.06Q42.82 43.85 45.62 41.43Q48.42 39.01 51.35 37.87Q53.42 37.06 55.56 36.82Q56.44 36.72 57.34 36.72C59.37 36.72 61.41 37.1 63.45 37.87C65.49 38.63 67.44 39.82 69.31 41.43C71.18 43.05 72.88 45.25 74.4 48.06C75.93 50.86 76.7 54.3 76.7 58.37L76.7 148.3C76.7 153.06 78.44 157 81.92 160.14C85.4 163.29 89.52 164.86 94.28 164.86Q101.9 164.22 106.11 160.1Q110.32 155.96 111.09 148.3L111.09 58.37C111.26 54.3 112.11 50.86 113.64 48.06C115.16 45.25 116.86 43.05 118.73 41.43Q121.53 39.01 124.46 37.87C126.42 37.1 128.41 36.72 130.45 36.72L130.45 36.72Q133.51 36.72 136.56 37.87C138.6 38.63 140.55 39.82 142.42 41.43C144.29 43.05 145.99 45.25 147.52 48.06C149.05 50.86 149.81 54.3 149.81 58.37L149.81 148.3C149.81 153.06 151.55 157 155.03 160.14C158.51 163.29 162.63 164.86 167.39 164.86Q175.02 164.22 179.22 160.1Q183.44 155.96 184.2 148.3L184.2 56.34C184.2 47.16 182.21 39.27 178.21 32.64C174.22 26.02 169.64 20.71 164.46 16.72C159.28 12.73 153.84 9.72 148.15 7.68C142.47 5.64 136.65 4.62 130.7 4.62Q129.68 4.62 128.66 4.66Q121.04 4.98 113.51 7.68Q104.97 10.74 97.08 16.6C96.06 17.44 95.12 18.29 94.28 19.14C93.26 18.29 92.32 17.44 91.47 16.6Q83.58 10.74 75.04 7.68Q69.57 5.72 63.94 5.02ZM233.88 165.37C244.07 164.52 249.67 159 250.69 148.81L250.69 52.26C250.69 48.01 252.9 45.81 257.31 45.64L346.73 45.64C349.96 45.81 352.63 46.53 354.75 47.8C356.88 49.08 358.45 50.52 359.47 52.13C360.49 53.75 361 55.4 361 57.1C361 58.8 360.49 60.45 359.47 62.07C358.45 63.68 356.88 65.12 354.75 66.4C352.63 67.67 349.96 68.39 346.73 68.56L279.48 68.56C274.72 68.56 270.69 70.22 267.38 73.53C264.06 76.84 262.41 80.88 262.41 85.63C262.41 87.5 263.94 96.08 266.99 111.36C269.2 125.12 275.4 137.01 285.59 147.03C295.78 157.05 307.16 161.97 319.73 161.8L379.34 161.8C383.92 161.63 387.79 159.98 390.93 156.83C394.07 153.69 395.73 149.83 395.9 145.24C395.9 140.49 394.32 136.41 391.18 133.02C388.04 129.62 384.09 127.84 379.34 127.67L324.31 127.67C318.03 127.67 312.85 125.63 308.77 121.55C304.53 117.48 301.72 111.19 300.37 102.7L345.2 102.7C357.09 102.36 366.9 99.64 374.62 94.55C382.35 89.45 387.87 83.64 391.18 77.1Q395.37 68.83 396.03 60.29Q396.15 58.7 396.15 57.1C396.15 50.48 394.45 43.9 391.06 37.36C387.66 30.82 382.14 25 374.5 19.91Q363.03 12.26 345.2 11.76L343.67 11.76C342.65 11.59 341.63 11.5 340.62 11.5L233.88 11.5C229.12 11.5 225.05 13.07 221.65 16.21C218.25 19.35 216.47 23.3 216.3 28.06L216.3 148.81C216.3 153.57 218.04 157.51 221.52 160.66C225 163.8 229.12 165.37 233.88 165.37Z" fill="#F5F5F5" fill-opacity="1.000000" fill-rule="evenodd"/>
		</mask>
		<g mask="url(#mask4_302)">
			<path id="path" d="M3.84 172.81L3.84 76.65C31.45 71.64 59.05 66.62 80.94 63.19C102.83 59.76 119 57.91 146.87 61.91C174.74 65.91 214.32 75.76 242.77 77.29C271.22 78.83 288.53 72.05 312.24 70.56C335.95 69.07 366.05 72.86 396.15 76.65L396.15 172.81L3.84 172.81Z" fill="#E9EDC9" fill-opacity="1.000000" fill-rule="nonzero"/>
			<path id="path" d="M3.84 76.65C31.45 71.64 59.05 66.62 80.94 63.19C102.83 59.76 119 57.91 146.87 61.91C174.74 65.91 214.32 75.76 242.77 77.29C271.22 78.83 288.53 72.05 312.24 70.56C335.95 69.07 366.05 72.86 396.15 76.65L396.15 172.81L3.84 172.81L3.84 76.65Z" stroke="#000000" stroke-opacity="0" stroke-width="0.000000"/>
		</g>
		<g mask="url(#mask4_302)">
			<path id="path" d="M3.84 172.81L3.84 119.28C22.79 114.55 41.75 109.82 70.59 113.19C99.43 116.56 138.16 128.03 168.67 131.14C199.17 134.25 221.46 129.01 241.41 128.9C261.35 128.79 278.94 133.81 304.34 133.06C329.74 132.32 362.94 125.8 396.15 119.28L396.15 172.81L3.84 172.81Z" fill="#CCD5AE" fill-opacity="1.000000" fill-rule="nonzero"/>
			<path id="path" d="M3.84 119.28C22.79 114.55 41.75 109.82 70.59 113.19C99.43 116.56 138.16 128.03 168.67 131.14C199.17 134.25 221.46 129.01 241.41 128.9C261.35 128.79 278.94 133.81 304.34 133.06C329.74 132.32 362.94 125.8 396.15 119.28L396.15 172.81L3.84 172.81L3.84 119.28Z" stroke="#000000" stroke-opacity="0" stroke-width="0.000000"/>
		</g>
	</g>
</svg>
