<svg width="40.000000" height="40.000000" viewBox="0 0 40 40" fill="none" xmlns="http://www.w3.org/2000/svg" xmlns:xlink="http://www.w3.org/1999/xlink">
	<desc>
			Created with Pixso.
	</desc>
	<defs>
		<clipPath id="clip8_55">
			<rect id="icon-exit" width="40.000000" height="40.000000" fill="white" fill-opacity="0"/>
		</clipPath>
	</defs>
	<g clip-path="url(#clip8_55)">
		<path id="path" d="M2.5 20C2.49 18.74 2.65 17.5 2.96 16.28C3.27 15.06 3.73 13.9 4.34 12.79C4.94 11.69 5.67 10.68 6.53 9.76C7.39 8.84 8.35 8.04 9.41 7.36C10.47 6.68 11.6 6.14 12.79 5.75C13.99 5.35 15.21 5.11 16.47 5.03C17.72 4.94 18.97 5.01 20.21 5.24C21.45 5.47 22.64 5.84 23.78 6.37C24.92 6.9 25.22 7.72 24.7 8.86C24.17 10 23.34 10.3 22.21 9.78C20.47 8.98 18.64 8.64 16.73 8.77C14.81 8.91 13.05 9.49 11.43 10.52C9.82 11.56 8.55 12.92 7.63 14.6C6.71 16.28 6.25 18.08 6.25 20C6.25 21.91 6.71 23.71 7.63 25.4C8.55 27.08 9.82 28.44 11.43 29.47C13.05 30.5 14.81 31.09 16.73 31.22C18.64 31.35 20.47 31.02 22.21 30.22C23.35 29.66 24.19 29.96 24.73 31.11C25.26 32.27 24.95 33.1 23.78 33.62C22.64 34.15 21.45 34.52 20.21 34.75C18.97 34.98 17.73 35.05 16.47 34.96C15.21 34.88 13.99 34.64 12.79 34.24C11.6 33.85 10.47 33.31 9.41 32.63C8.35 31.96 7.39 31.16 6.53 30.24C5.67 29.32 4.94 28.3 4.34 27.2C3.73 26.09 3.27 24.93 2.96 23.71C2.65 22.49 2.49 21.25 2.5 20Z" fill="#333333" fill-opacity="1.000000" fill-rule="nonzero"/>
		<path id="path" d="M28.11 11.73C27.18 12.57 27.14 13.46 27.98 14.38L31.38 18.12L16.87 18.12C15.62 18.12 15 18.75 15 20C15 21.25 15.62 21.87 16.87 21.87L31.38 21.87L27.98 25.61C27.14 26.53 27.18 27.42 28.11 28.26C29.03 29.1 29.92 29.06 30.76 28.13L37.01 21.26C37.78 20.41 37.78 19.57 37 18.73L30.76 11.86C29.92 10.93 29.03 10.89 28.11 11.73Z" fill="#333333" fill-opacity="1.000000" fill-rule="nonzero"/>
	</g>
</svg>
